<svg xmlns="http://www.w3.org/2000/svg" viewBox="0 0 658.41 550.66"><defs><style>.cls-1{stroke:#000;stroke-miterlimit:10;stroke-width:2px;}</style></defs><g id="Layer_2" data-name="Layer 2"><g id="Layer_1-2" data-name="Layer 1"><path class="cls-1" d="M87,325.11c-8.16-10.55-15.89-21.36-21.1-33.44-11.87-27.53-9.6-59.15-2.84-88.36,12.48-54,43.19-107.67,94.11-129.5,34.5-14.8,74.18-13.15,110.5-3.67,13.3,3.47,26.64,8,40.38,7.49,26.19-1,47.91-19.53,72-29.8a117.79,117.79,0,0,1,162.33,88.75c5.43,32.17-2.52,66.17,7.42,97.24,8.56,26.77,29.39,47.94,40.29,73.86A107.42,107.42,0,0,1,532.3,448.49c-41.8,17.36-91.18,7.24-132.87,24.84-30.63,12.93-53.55,39.35-82.68,55.38-36.52,20.1-85,23.95-121.85,3-34.56-19.69-62.48-57.28-67.3-97.22-2-16.39-.24-33.23-4.13-49.27C117.88,362.17,101.73,344.08,87,325.11Z"/><path class="cls-1" d="M117.14,424.29c.49-7-1.24-13.88-3.11-20.56s-3.57-13.2-6.3-19.55c-5.57-12.9-14.07-24.73-25.43-33-12.47-9.08-28-13.56-43.43-13.71-8-.08-16.21,1-23.58,4.22-5.89,2.58-11.47,6.89-13.46,13a19.83,19.83,0,0,0-.5,9.38A27.34,27.34,0,0,0,12.38,381.7c6.45,4.57,14.59,6.09,22.48,6.39s15.82-.48,23.7,0a73.63,73.63,0,0,1,34.21,11.15C102.86,405.56,112,413.31,117.14,424.29Z"/><path class="cls-1" d="M73,330.58c-8,1.69-18.6-2.16-26-5.05-8.29-3.25-16-8.43-21.29-15.58C18,299.48,15.86,285.68,17,272.68c.54-6.53,2.36-13.79,8-17.08,6-3.49,14.18-.7,18.56,4.69s5.7,12.65,6,19.59-.32,13.95.86,20.8a40.68,40.68,0,0,0,7.74,17.52C62.32,323.75,67.59,326.62,73,330.58Z"/><path class="cls-1" d="M349.73,48.06c-3.91,3.79-9.86,6.48-14.76,8.74a90.4,90.4,0,0,1-16.45,5.76,58.83,58.83,0,0,1-53.4-13c-10.47-9.17-27.77-31.6-13.63-44.21,7-6.26,18.86-5.33,26,.22,3.35,2.6,6,6,8.57,9.37,14.34,18.56,33.64,37.65,59.18,34C346.74,48.66,348.24,48.19,349.73,48.06Z"/><path class="cls-1" d="M562,170c8.3-4.52,16.14-14.41,21-22.37,5.44-8.92,8.59-19.48,7.43-29.87-1.34-11.84-8.84-26.27-18.49-33.52-4.14-3.11-9.84-4.67-14.58-2.59a13.26,13.26,0,0,0-5.62,4.9c-3.23,4.84-3.71,11.14-2.32,16.78,2.11,8.59,8.26,14.71,12.43,22.24A43.72,43.72,0,0,1,567,147.39C566.88,155.54,564,162.29,562,170Z"/><path class="cls-1" d="M571.53,256a111.3,111.3,0,0,1-8.23-40.3c-.15-14,3.16-28.3,11-39.94a78,78,0,0,1,34.09-28.15c11.74-4.95,32.25-9.8,43-.31,6.73,6,7.66,16.69,3.93,24.88s-11.2,14.1-19.17,18.28-16.6,6.91-24.75,10.71c-11,5.1-21.12,12.25-28.53,21.8a54.83,54.83,0,0,0-8.41,15.33C572.29,244.18,572.65,250.14,571.53,256Z"/><path class="cls-1" d="M371.26,515.14C376.07,509,384.5,504,391,499.77a132.75,132.75,0,0,1,21.93-11.58c15.53-6.38,32.51-9.51,49.23-8a100.75,100.75,0,0,1,31.44,8.35c9.14,4,19.07,9.22,26,16.55,5.86,6.19,9.6,15.06,7.48,23.31-1.58,6.17-6.19,11.19-11.41,14.84-5.42,3.79-11.84,6.43-18.45,6.4-11.3,0-21.2-7.51-29.67-14.22-9.24-7.31-17.54-15.85-28.1-21.35s-22.51-7.55-34.31-7A90.42,90.42,0,0,0,388,509.71C382.38,511.1,376.83,514.09,371.26,515.14Z"/></g></g></svg>